<?xml version="1.0" encoding="utf-8"?>
<!-- Generator: Adobe Illustrator 16.0.0, SVG Export Plug-In . SVG Version: 6.00 Build 0)  -->
<!DOCTYPE svg PUBLIC "-//W3C//DTD SVG 1.1//EN" "http://www.w3.org/Graphics/SVG/1.1/DTD/svg11.dtd">
<svg version="1.1" id="timedOut" xmlns="http://www.w3.org/2000/svg" xmlns:xlink="http://www.w3.org/1999/xlink" x="0px" y="0px"
	 width="400px" height="400px" viewBox="0 0 400 400" enable-background="new 0 0 400 400" xml:space="preserve">
<ellipse transform="matrix(0.9696 -0.2448 0.2448 0.9696 -52.0499 36.1563)" fill="#FFFFFF" cx="119.454" cy="227.507" rx="10.492" ry="18.1"/>
<ellipse transform="matrix(0.9286 0.3711 -0.3711 0.9286 100.5017 -62.6471)" fill="#FFFFFF" cx="213.049" cy="229.845" rx="10.491" ry="18.099"/>
<path display="none" d="M-6,443.636c0-55.964,46.264-101.333,103.333-101.333s103.333,45.369,103.333,101.333
	c0,10.852-1.746,21.302-4.967,31.104C202.302,461.659,206,447.051,206,431.636c0-55.964-48.652-101.333-108.667-101.333
	c-60.015,0-108.667,45.369-108.667,101.333c0,15.415,3.698,30.022,10.301,43.104C-4.253,464.938-6,454.487-6,443.636z"/>
<path display="none" d="M-24.537,484.896c7.709,24.685,70.785,45.827,140.884,47.226c70.1,1.397,120.68-17.48,112.969-42.165
	c-1.494-4.786-5.077-9.438-10.384-13.841c9.912,5.932,16.467,12.465,18.591,19.264c7.707,24.685-47.804,46.504-121.521,45.034
	c-73.719-1.47-137.729-25.672-145.438-50.355c-2.123-6.799,0.407-13.15,6.716-18.76C-25.326,475.543-26.032,480.11-24.537,484.896z"
	/>
<path fill="#FFFFFF" d="M215.252,177.107l-4.779,4.876c0,0,37.931,10.216,29.516,55.518
	C239.988,237.501,255.775,190.399,215.252,177.107z"/>
<path fill="#FFFFFF" d="M120.719,176.601l4.025,4.182c0,0-32.334,8.399-25.523,46.992
	C99.221,227.774,86.154,187.595,120.719,176.601z"/>
<g>
	<path fill="#FFFFFF" d="M239.664,82.964c-12.148-4.222-25.118-6.935-38.667-7.853c-22.165-1.504-43.438,1.938-62.602,9.31
		c-0.78,2.124-1.857,4.444-3.323,6.999c-3.576,6.226-8.877,12.806-15.316,19.089c23.003-14.487,50.796-22.099,80.202-20.102
		c15.904,1.078,30.964,4.878,44.735,10.899C241.187,94.779,239.423,88.511,239.664,82.964z"/>
	<path fill="#FFFFFF" d="M98.455,127.206c-9.38,5.782-18.458,9.397-25.74,10.136c-10.797,16.926-17.566,36.459-18.997,57.54
		c-1.332,19.648,2.118,38.587,9.403,55.833c-3.257-12.773-4.579-26.243-3.641-40.077C61.711,177.758,76.28,148.608,98.455,127.206z"
		/>
	<path fill="#FFFFFF" d="M301.16,148.233c15.503,22.897,23.753,50.77,21.751,80.274c-0.939,13.834-4.067,27.004-9.02,39.217
		c9.547-16.1,15.524-34.401,16.857-54.051c1.443-21.288-2.72-41.744-11.301-60.115C313.701,152.63,307.506,150.812,301.16,148.233z"
		/>
</g>
<path fill="#FFFFFF" d="M316.585,91.391c3.172-3,4.904-6.194,4.946-9.52c0.239-18.77-52.755-57.493-118.704-58.341
	c-65.955-0.846-118.61,33.662-118.853,52.434c-0.042,3.284,1.566,6.48,4.586,9.524c-0.583,0.464-1.166,0.936-1.747,1.417
	c-19.578,16.185-30.528,35.257-24.458,42.598c6.069,7.344,26.86,0.175,46.438-16.013c19.577-16.185,30.528-35.256,24.458-42.598
	c-5.69-6.884-24.323-1.013-42.763,13.091c-0.476-1.29-0.721-2.598-0.704-3.923C90.027,61.292,140,29.614,202.715,30.42
	c62.716,0.804,113.143,36.631,112.902,55.401c-0.019,1.41-0.332,2.794-0.907,4.152c-1.281-0.951-2.585-1.891-3.928-2.812
	c-26.837-18.408-55.362-23.459-63.713-11.287c-8.352,12.179,6.632,36.97,33.469,55.376c26.837,18.411,55.36,23.461,63.714,11.286
	C351.979,131.268,339.718,109.205,316.585,91.391z"/>
<path display="none" d="M22.281,348.137l-13.781-28c0,0,74.813-87.833,189.167,2.167l-20.724,32.883l-5.035-3.05l16.653-27.833
	c0,0-87.529-77.667-172.925-2.667l11.32,22.25L22.281,348.137z"/>
<path fill="#FFFFFF" d="M296.471,323.141l-118.734-54.073c-1.052-9.233-8.882-16.407-18.396-16.407
	c-9.977,0-18.089,7.892-18.487,17.771l-68.97,31.543l72.971-19.261c3.394,4.26,8.616,6.997,14.486,6.997
	c5.899,0,11.144-2.768,14.536-7.064L296.471,323.141z"/>
<path display="none" d="M88.799,346.427c0,0,3.201-1.457,11.034-0.791c0,0-6.627,11.092-6.833,26c0,0-9.099,0.535-10.955,0.879
	C82.045,372.516,80.859,359.844,88.799,346.427z"/>
<path display="none" d="M303.063,386.843c0,0-3.006-8.732-2.83-17.608c0,0,16.936,7.217,38.408,4.307c0,0,2.602,15.536,3.545,18.428
	C342.187,391.969,324.263,396.617,303.063,386.843z"/>
<path display="none" d="M325.349,462.843c0,0,3.006-8.732,2.83-17.608c0,0-16.936,7.217-38.408,4.307c0,0-2.602,15.536-3.545,18.428
	C286.226,467.969,304.149,472.617,325.349,462.843z"/>
<path display="none" d="M196.667,468.97c0,0-3,8.334-4.667,12c0,0-11.333,4-24.333,2.667l2-10.667
	C169.667,472.97,185.667,473.969,196.667,468.97z"/>
<polygon display="none" points="256.833,505.48 78.08,644.708 -40.499,490.732 76.9,631.729 "/>
<polygon display="none" points="284.765,386.067 139.948,211.812 -8.835,336.843 136.018,224.238 "/>
<polygon display="none" points="201.283,287.79 326.23,476.801 163.522,583.083 313.198,476.971 "/>
<polygon display="none" points="75.623,270.847 -105.017,407.618 13.145,561.915 -92.781,412.107 "/>
<g>
	<path fill="#FFFFFF" d="M68.351,355.637c0.138,0.386,0.428,1.093,0.275,1.849c-0.375,1.866-1.909,3.069-5.226,2.4
		c-2.071-0.415-2.927-1.522-2.525-3.523c0.195-0.968,0.514-1.839,0.901-2.335l6.414-31.916l-8.402-0.035
		c-0.622,0.234-1.451,0.424-2.28,0.259c-1.935-0.389-2.942-1.814-2.566-3.678c0.401-2.004,2.019-3.259,3.539-2.955
		c1.174,0.237,1.479,0.514,1.907,0.888l9.548,0.05c1.203-0.981,4.118-0.826,5.154,0.1l10.806,0.234
		c0.83-0.195,1.409-0.22,2.239-0.055c1.795,0.362,2.803,1.787,2.386,3.857c-0.346,1.727-1.771,3.094-3.637,2.72
		c-0.968-0.195-1.534-0.599-2.03-0.983l-9.826-0.11L68.351,355.637z"/>
	<path fill="#FFFFFF" d="M94.735,339.495l-3.193,19.893c0.303,0.334,0.726,1.258,0.591,2.093c-0.38,2.369-3.469,2.942-5.625,2.596
		c-1.809-0.292-2.93-1.754-2.605-3.771c0.2-1.253,0.88-1.932,1.214-2.233l3.104-19.338c-0.351-0.484-0.437-1.283-0.336-1.91
		c0.312-1.946,0.786-4.012,5.029-3.331c1.601,0.257,3.188,2.368,2.884,3.815C95.608,338.492,94.94,339.098,94.735,339.495z
		 M98.082,323.974c-0.66,4.107-3.056,6.148-5.213,5.798c-2.226-0.354-2.907-1.891-2.595-3.837c0.57-3.549,2.547-6.083,5.19-5.662
		C97.482,320.6,98.405,321.958,98.082,323.974z"/>
	<path fill="#FFFFFF" d="M107.519,362.187c0.225,0.522,0.439,1.113,0.351,1.887c-0.25,2.168-1.352,3.104-4.011,2.797
		c-2.66-0.307-3.955-1.38-3.664-3.897c0.104-0.911,0.66-1.415,0.864-1.959l2.432-21.065c-0.223-0.519-0.562-1.271-0.417-2.531
		c0.259-2.241,1.771-3.059,4.991-2.685c2.099,0.242,2.917,1.754,2.724,3.434c-0.081,0.699-0.232,1.393-0.741,2.111l-0.307,2.662
		c4.447-2.892,11.131-6.729,14.631-6.325c2.799,0.324,3.997,2.236,3.633,5.385l-0.387,3.358c6.662-4.267,12.711-6.902,15.721-6.552
		c2.31,0.264,3.835,1.789,3.544,4.309l-2.722,23.585c0.564,0.632,0.673,0.931,0.56,1.91c-0.242,2.098-2.859,2.647-4.818,2.42
		c-2.171-0.25-3.374-0.883-3.09-3.333c0.104-0.91,0.44-1.367,0.822-1.606l2.206-19.109c0.099-0.836-0.242-1.588-0.941-1.667
		c-1.681-0.194-5.258,1.308-11.945,5.784l-1.542,13.368c-0.477,4.13-1.817,4.684-4.896,4.329c-2.029-0.235-3.185-1.292-2.967-3.179
		c0.073-0.632,0.683-1.625,1.394-2.25l2.109-18.266c0.13-1.123-0.103-1.575-1.012-1.679c-1.609-0.188-5.976,2.004-11.002,5.609
		L107.519,362.187z"/>
	<path fill="#FFFFFF" d="M181.468,351.023c-0.218,3.164-2.597,5.894-19.104,7.651l-3.272,0.339c-0.43,1.101-0.657,2.355-0.754,3.76
		c-0.243,3.516,1.488,5.048,4.51,5.258c4.851,0.332,9.122-2.195,10.518-4.007c-0.099-1.632,1.409-3.01,3.729-2.85
		c2.601,0.179,3.047,1.907,2.95,3.312c-0.136,1.966-6.821,9.769-18.349,8.973c-5.975-0.412-10.363-3.329-9.864-10.568
		c0.904-13.076,10.763-21.859,19.972-21.22C179.745,342.217,181.657,348.281,181.468,351.023z M160.702,354.107
		c12.591-1.317,14.422-2.251,14.49-3.237c0.117-1.685-0.946-3.666-4.04-3.88C167.146,346.714,163.121,349.756,160.702,354.107z"/>
	<path fill="#FFFFFF" d="M210.292,333.978c-0.691-0.377-0.939-1.303-0.899-2.428c0.064-1.761,1.94-2.961,4.334-2.875
		c2.323,0.085,3.465,1.677,3.402,3.364l-0.297,2.388l-1.313,36.26c0.345,0.225,0.882,0.948,0.853,1.792
		c-0.08,2.184-1.445,2.91-4.403,2.803c-2.393-0.088-3.486-1.044-3.417-2.942c0.023-0.704,0.048-1.338,0.41-1.608l0.177-4.858
		c-3.643,5.155-11.351,9.742-17.548,9.517c-4.152-0.152-7.641-3.096-7.444-8.586c0.402-11.057,12.065-21.702,21.009-21.38
		c1.971,0.072,3.437,0.479,4.672,1.367L210.292,333.978z M190.888,365.636c-0.08,2.181,0.568,3.755,3.174,3.853
		c3.45,0.122,7.062-2.287,10.132-5.275c2.844-2.645,5.03-4.612,5.175-8.624c0.098-2.678-1.311-4.701-4.337-4.811
		C199.328,350.574,191.096,359.862,190.888,365.636z"/>
	<path fill="#FFFFFF" d="M260.78,349.621c-0.032,15.432-10.837,26.895-24.015,26.865c-11.414-0.025-15.056-10.67-15.039-18.493
		c0.03-14.091,10.987-30.275,23.389-30.251C253.22,327.759,260.815,333.695,260.78,349.621z M228.775,357.162
		c-0.016,6.482,2.507,13.674,9.271,13.689c7.68,0.02,15.662-8.843,15.688-21.036c0.023-10.989-3.559-16.424-9.407-16.439
		C237,333.361,228.798,346.169,228.775,357.162z"/>
	<path fill="#FFFFFF" d="M273.668,367.506c0.025,0.919,1.187,2.156,2.314,2.122c2.396-0.065,6.612-3.069,9.266-6.527l-0.418-15.212
		c-0.225-0.489-0.449-0.973-0.466-1.536c-0.048-1.765,0.778-2.491,3.103-2.556c2.254-0.063,4.307,0.234,3.912,3.842l0.624,22.678
		c0.293,0.414,0.664,1.107,0.683,1.816c0.043,1.547-1.477,2.646-4.437,2.728c-2.254,0.063-3.19-0.686-3.228-2.096
		c-0.017-0.564,0.388-1.208,0.517-1.634l-0.044-1.622c-2.938,3.323-7.083,6.468-11.942,6.602c-2.962,0.011-6.279-2.786-6.368-6.028
		l-0.585-21.27c-0.012-0.422-0.449-0.976-0.468-1.68c-0.065-2.323,1.89-3.012,4.072-3.071c1.41-0.041,3.4,0.611,3.46,2.725
		c0.02,0.704-0.247,1.275-0.519,1.707L273.668,367.506z"/>
	<path fill="#FFFFFF" d="M303.14,338.08c-0.3-0.336-0.454-0.611-0.514-1.736c-0.098-1.899,1.702-2.558,4.305-2.692
		c1.477-0.081,3.182,0.115,3.275,1.946c0.03,0.561-0.149,1.207-0.541,1.791l0.225,4.293l8.791-1.87
		c0.334-0.372,0.745-0.601,1.308-0.634c1.689-0.087,2.678,1.273,2.75,2.68c0.117,2.25-0.81,3.425-2.286,3.506
		c-0.493,0.025-0.92-0.026-1.142-0.224l-9.14,1.956l0.987,19c0.059,1.125,0.455,1.951,1.3,1.909
		c1.406-0.073,6.733-3.456,9.433-7.194c-0.152-1.545,0.842-2.795,2.53-2.882c2.815-0.147,3.662,1.22,3.766,3.191
		c0.142,2.745-11.319,13.005-17.652,13.334c-3.447,0.181-5.619-2.248-5.795-5.626l-1.058-20.334l-4.537,0.94
		c-0.334,0.373-0.744,0.604-1.374,0.709c-1.69,0.017-2.878-1.05-2.988-3.162c-0.089-1.76,1.11-3.092,2.659-3.171
		c0.492-0.028,0.995,0.156,1.217,0.361l4.745-1.022L303.14,338.08z"/>
</g>
</svg>
